# xmcd CD database file
#
# Track frame offsets:
#	150
#	11456
#	25493
#	39476
#	54994
#	68104
#	82174
#	96001
#	110213
#	125545
#
# Disc length: 1851 seconds
#
# Revision: 1
# Processed by: cddbd v1.5.2PL0 Copyright (c) Steve Scherf et al.
# Submitted via: CDex 1.70beta2
#
DISCID=8307390a
DTITLE=Various Artist - Sirens Of Swing [CD1 of 2)
DYEAR=2005
DGENRE=Jazz
TTITLE0=Ella Fitzgerald and Her Orch -  I Can't Believe That You're In Love With Me
TTITLE1=Billy Holiday, Teddy Wilson and His Orch - Until The Real Thing Comes Along
TTITLE2=Anita O'Day With The King Cole Trio - Penthouse Serenade
TTITLE3=Frances Wayne With Woody Herman and His Orch - Happiness Is Just A ThingCalled Joe
TTITLE4=Kay Starr With The Crystalette All-Stars - Stormy Weather
TTITLE5=Nellie Lutcher And Her Rhythm - The Lady's In Love With You
TTITLE6=Peggy Lee With Dave Barbour's Orchestra - Linger In My Arms A Little Longer, BabyLee Wiley With Jess Stacy And His Orch - It's Only A Paper Moon
TTITLE7=Lee Wiley With Jess Stacy And His Orch - It's Only A Paper Moon
TTITLE8=Fran Warren With Claude Thornhill And His Orch - A Sunday Kind Of Love
TTITLE9=Sarah Vaughan With Ted Dale's Orchestra - Love Me Or Leave Me
EXTD=YEAR: 2005
EXTT0=
EXTT1=
EXTT2=
EXTT3=
EXTT4=
EXTT5=
EXTT6=
EXTT7=
EXTT8=
EXTT9=
PLAYORDER=
